# xmcd CD database file generated by OrangeCD 6.3
#
# Track frame offsets:
#	182
#	12387
#	28957
#	40245
#	53137
#	65452
#	79080
#	91642
#	103192
#	114167
#	127650
#	139127
#	150332
#	162237
#	175135
#	193205
#	209430
#	220215
#
# Disc length: 3110 seconds
#
# Revision: 4
# Processed by: cddbd v1.5.2PL0 Copyright (c) Steve Scherf et al.
# Submitted via: OrangeCD 6.3
#
DISCID=ef0c2412
DTITLE=Frank Frost - Downhome Blues
DYEAR=1995
DGENRE=R&B
TTITLE0=Everything's Alright
TTITLE1=Lucky To Be Living
TTITLE2=Jelly Roll King
TTITLE3=Baby Your So Kind
TTITLE4=Big Boss Man
TTITLE5=So Tired Of Living By Myself
TTITLE6=Now What You Gonna Do
TTITLE7=My Back Scratcher
TTITLE8=Never Leave Me At Home
TTITLE9=Harpin' On It
TTITLE10=Things You Do
TTITLE11=Feel Good Babe
TTITLE12=Ride With Your Daddy Tonight
TTITLE13=Got My Mojo Working
TTITLE14=Didn't Mean No Harm
TTITLE15=Five Long Years
TTITLE16=Pocket Full Of Money
TTITLE17=Harp And Soul
EXTD=
EXTT0=
EXTT1=
EXTT2=
EXTT3=
EXTT4=
EXTT5=
EXTT6=
EXTT7=
EXTT8=
EXTT9=
EXTT10=
EXTT11=
EXTT12=
EXTT13=
EXTT14=
EXTT15=
EXTT16=
EXTT17=
PLAYORDER=
